<svg xmlns:dc="http://purl.org/dc/elements/1.1/" xmlns:cc="http://creativecommons.org/ns#" xmlns:rdf="http://www.w3.org/1999/02/22-rdf-syntax-ns#" xmlns:svg="http://www.w3.org/2000/svg" xmlns="http://www.w3.org/2000/svg" xmlns:sodipodi="http://sodipodi.sourceforge.net/DTD/sodipodi-0.dtd" xmlns:inkscape="http://www.inkscape.org/namespaces/inkscape" version="1.1" id="svg2" xml:space="preserve" width="3108.9734" height="1775.9067" viewBox="0 0 3108.9734 1775.9067" sodipodi:docname="tg-letter-logo-seeklogo.com.eps" style="
    width: 100px;
    height: 100px;
"><metadata id="metadata8"><rdf:rdf><cc:work rdf:about=""><dc:format>image/svg+xml</dc:format><dc:type rdf:resource="http://purl.org/dc/dcmitype/StillImage"></dc:type></cc:work></rdf:rdf></metadata><defs id="defs6"></defs><sodipodi:namedview pagecolor="#ffffff" bordercolor="#666666" borderopacity="1" objecttolerance="10" gridtolerance="10" guidetolerance="10" inkscape:pageopacity="0" inkscape:pageshadow="2" inkscape:window-width="640" inkscape:window-height="480" id="namedview4"></sodipodi:namedview><g id="g10" inkscape:groupmode="layer" inkscape:label="ink_ext_XXXXXX" transform="matrix(1.3333333,0,0,-1.3333333,0,1775.9067)"><g id="g12" transform="scale(0.1)"><path d="m 5809.05,10466.9 c -455.7,0 -840.98,-0.1 -1226.26,0 -876.21,0.1 -1752.51,8.4 -2628.55,-3.6 -339.37,-4.7 -572.77,109.1 -740.03,414.3 -350.218,639 -725.651,1264.1 -1084.675,1898.3 -234.824,414.8 -163.91,532.9 324.317,533.5 2068.798,2.5 4137.608,0.8 6206.408,0.8 4125.44,-0.2 8250.94,-7.2 12376.24,9.1 487.8,1.9 796.8,-148 1021.6,-582.4 301.1,-581.8 650.8,-1138.4 978.3,-1706.6 270.4,-469 219.2,-562.7 -319.4,-562.9 -3431.7,-1.3 -6863.5,-0.6 -10295.3,-0.6 -292.1,0.1 -585.7,-18.9 -875.74,5.4 -291.6,24.4 -461.47,-76.3 -606.98,-337 C 8388.69,9148.93 7824.27,8170.09 7242.16,7202.26 7008.09,6813.05 7019.35,6481.49 7248.4,6091.26 8373.53,4174.2 9478.79,2245.5 10590.5,320.602 c 47.6,-82.399 89.3,-168.2 147.4,-278.0004 C 10632,26.8008 10551.3,4.70313 10470.6,4.5 9606.53,2.20313 8742.45,9.40234 7878.53,0.101563 7615.56,-2.69922 7447.51,99.9023 7318.46,324 6215.27,2239.6 5112.83,4155.54 3995.26,6062.65 c -252.98,431.66 -219.02,810.04 29.13,1224.26 543.17,906.68 1066.24,1825.39 1593.25,2741.69 68.02,118.2 110.65,251 191.41,438.3" style="fill: #f4623a;fill-opacity:1;fill-rule:evenodd;stroke:none;" id="path14"></path><path d="m 13095.7,9476.96 c -403.4,-703.22 -714.5,-1352.61 -1124.8,-1931.79 -439.5,-620.5 -451.1,-1135.26 -10.4,-1774.48 550.1,-797.78 999.6,-1666.37 1469.1,-2517.29 169.3,-306.7 386.2,-425 729.1,-421.1 1119.8,12.8 2240,4.8 3360,4.7 599.5,0 912.1,285.1 1013.9,957.09 -132.1,6.74 -260.9,18.9 -389.6,19.08 -1156.6,1.57 -2313.3,9.25 -3469.6,-4.42 -307.4,-3.64 -494.5,105.41 -641.3,372.38 -363.1,659.86 -752.7,1305.08 -1122.9,1961.07 -194.1,343.87 -148,440.57 230.6,520 117.1,24.58 240.8,24.83 361.5,24.87 3007,1.24 6014.1,1.42 9021.1,0.67 884,-0.21 976.6,-152.63 543.1,-903.78 C 22057.2,4036.88 21040,2294.9 20040.2,543 19832,178.203 19576.6,-2.30078 19139.9,0.300781 16863.5,13.5 14586.9,0.5 12310.4,13.2031 12176.4,13.9023 11986.3,126.102 11918,242.602 10756.3,2223.9 9612.46,4215.69 8457.25,6200.84 c -177.35,304.81 -189.16,581.93 -7.63,888.2 421.26,710.71 824,1432.4 1245.98,2142.61 60.43,101.69 185.03,233.11 281.91,234.75 1007.79,17.15 2016.09,10.56 3118.19,10.56" style="fill:#80cc28;fill-opacity:1;fill-rule:evenodd;stroke:none" id="path16"></path></g></g></svg>