<?xml version="1.0" encoding="UTF-8"?>
<svg width="17px" height="17px" viewBox="0 0 17 17" version="1.1" xmlns="http://www.w3.org/2000/svg" xmlns:xlink="http://www.w3.org/1999/xlink">
    <!-- Generator: Sketch 50.2 (55047) - http://www.bohemiancoding.com/sketch -->
    <defs></defs>
    <g id="Icon-Search-Normal" stroke="none" stroke-width="1" fill="none" fill-rule="evenodd">
        <path d="M16.1621977,15.4833019 L12.1171721,11.2767587 C13.157524,10.0394523 13.7274981,8.48321411 13.7274981,6.86318954 C13.7274981,3.07890464 10.6485935,0 6.86281652,0 C3.07890464,0 0,3.07890464 0,6.86318954 C0,10.6485935 3.07890464,13.7274981 6.86281652,13.7274981 C8.28364857,13.7274981 9.63882916,13.2992715 10.7955633,12.4845965 L14.8726686,16.7247115 C15.0431386,16.9026419 15.2717997,17 15.5183657,17 C15.750011,17 15.9697196,16.9112213 16.1375784,16.7497038 C16.4945583,16.4072717 16.5046298,15.8402817 16.1621977,15.4833019 Z M6.86281652,1.7908676 C9.6604643,1.7908676 11.9366305,4.06703384 11.9366305,6.86318954 C11.9366305,9.66083732 9.6604643,11.9366305 6.86281652,11.9366305 C4.06666082,11.9366305 1.7908676,9.66083732 1.7908676,6.86318954 C1.7908676,4.06703384 4.06666082,1.7908676 6.86281652,1.7908676 Z" id="Fill-1" fill="#93A4BA"></path>
    </g>
</svg>